<mxfile host="app.diagrams.net" modified="2023-08-04T04:45:43.912Z" agent="Mozilla/5.0 (Windows NT 10.0; Win64; x64) AppleWebKit/537.36 (KHTML, like Gecko) Chrome/115.0.0.0 Safari/537.36 Edg/115.0.1901.188" etag="H-0CPA5TkETwtWpE9bnB" version="21.6.3" type="device">
  <diagram name="Page-1" id="NWldlVrgPOwpcx_v5xSx">
    <mxGraphModel dx="1467" dy="793" grid="0" gridSize="10" guides="1" tooltips="1" connect="1" arrows="1" fold="1" page="1" pageScale="1" pageWidth="850" pageHeight="1100" math="0" shadow="0">
      <root>
        <mxCell id="0" />
        <mxCell id="1" parent="0" />
        <mxCell id="k0cTdrjHf7oCT_stKDzE-2" value="" style="swimlane;startSize=0;strokeWidth=2;" parent="1" vertex="1">
          <mxGeometry x="320" y="74" width="419" height="586" as="geometry">
            <mxRectangle x="320" y="74" width="50" height="44" as="alternateBounds" />
          </mxGeometry>
        </mxCell>
        <mxCell id="k0cTdrjHf7oCT_stKDzE-3" value="&lt;b&gt;&lt;font style=&quot;font-size: 19px;&quot;&gt;Blogging Web App&lt;/font&gt;&lt;/b&gt;" style="text;html=1;align=center;verticalAlign=middle;resizable=0;points=[];autosize=1;strokeColor=none;fillColor=none;" parent="k0cTdrjHf7oCT_stKDzE-2" vertex="1">
          <mxGeometry x="91" y="13" width="187" height="35" as="geometry" />
        </mxCell>
        <mxCell id="k0cTdrjHf7oCT_stKDzE-4" value="&lt;span&gt;&lt;font style=&quot;font-size: 15px;&quot;&gt;Register&lt;/font&gt;&lt;/span&gt;" style="ellipse;whiteSpace=wrap;html=1;fontStyle=1;strokeWidth=2;" parent="k0cTdrjHf7oCT_stKDzE-2" vertex="1">
          <mxGeometry x="120" y="70" width="165" height="70" as="geometry" />
        </mxCell>
        <mxCell id="k0cTdrjHf7oCT_stKDzE-5" value="&lt;b&gt;&lt;font style=&quot;font-size: 15px;&quot;&gt;Login&lt;/font&gt;&lt;/b&gt;" style="ellipse;whiteSpace=wrap;html=1;strokeWidth=2;" parent="k0cTdrjHf7oCT_stKDzE-2" vertex="1">
          <mxGeometry x="120" y="156" width="169" height="70" as="geometry" />
        </mxCell>
        <mxCell id="k0cTdrjHf7oCT_stKDzE-6" value="&lt;b&gt;&lt;font style=&quot;font-size: 15px;&quot;&gt;Manage User&lt;/font&gt;&lt;/b&gt;" style="ellipse;whiteSpace=wrap;html=1;strokeWidth=2;" parent="k0cTdrjHf7oCT_stKDzE-2" vertex="1">
          <mxGeometry x="122" y="258" width="166" height="70" as="geometry" />
        </mxCell>
        <mxCell id="k0cTdrjHf7oCT_stKDzE-7" value="&lt;b&gt;&lt;font style=&quot;font-size: 14px;&quot;&gt;Manage Comment&lt;/font&gt;&lt;/b&gt;" style="ellipse;whiteSpace=wrap;html=1;strokeWidth=2;" parent="k0cTdrjHf7oCT_stKDzE-2" vertex="1">
          <mxGeometry x="124" y="353" width="167" height="70" as="geometry" />
        </mxCell>
        <mxCell id="k0cTdrjHf7oCT_stKDzE-8" value="&lt;b&gt;&lt;font style=&quot;font-size: 15px;&quot;&gt;Manage Post&lt;/font&gt;&lt;/b&gt;" style="ellipse;whiteSpace=wrap;html=1;strokeWidth=2;" parent="k0cTdrjHf7oCT_stKDzE-2" vertex="1">
          <mxGeometry x="125" y="450" width="179" height="70" as="geometry" />
        </mxCell>
        <mxCell id="k0cTdrjHf7oCT_stKDzE-10" value="&lt;b&gt;&lt;font style=&quot;font-size: 14px;&quot;&gt;Admin&lt;/font&gt;&lt;/b&gt;" style="shape=umlActor;verticalLabelPosition=bottom;verticalAlign=top;html=1;outlineConnect=0;strokeWidth=2;" parent="1" vertex="1">
          <mxGeometry x="81" y="211" width="51" height="100" as="geometry" />
        </mxCell>
        <mxCell id="k0cTdrjHf7oCT_stKDzE-13" value="&lt;b&gt;&lt;font style=&quot;font-size: 14px;&quot;&gt;User&lt;/font&gt;&lt;/b&gt;" style="shape=umlActor;verticalLabelPosition=bottom;verticalAlign=top;html=1;outlineConnect=0;strokeWidth=2;" parent="1" vertex="1">
          <mxGeometry x="81" y="458" width="51" height="100" as="geometry" />
        </mxCell>
        <mxCell id="k0cTdrjHf7oCT_stKDzE-14" value="" style="endArrow=none;html=1;rounded=0;exitX=0.5;exitY=0.5;exitDx=0;exitDy=0;exitPerimeter=0;entryX=0;entryY=0.5;entryDx=0;entryDy=0;strokeWidth=2;" parent="1" source="k0cTdrjHf7oCT_stKDzE-10" target="k0cTdrjHf7oCT_stKDzE-5" edge="1">
          <mxGeometry width="50" height="50" relative="1" as="geometry">
            <mxPoint x="373" y="365" as="sourcePoint" />
            <mxPoint x="314" y="240" as="targetPoint" />
          </mxGeometry>
        </mxCell>
        <mxCell id="k0cTdrjHf7oCT_stKDzE-16" value="" style="endArrow=none;html=1;rounded=0;entryX=0;entryY=0.5;entryDx=0;entryDy=0;exitX=0.5;exitY=0.5;exitDx=0;exitDy=0;exitPerimeter=0;fontStyle=1;strokeWidth=2;" parent="1" source="k0cTdrjHf7oCT_stKDzE-13" target="k0cTdrjHf7oCT_stKDzE-4" edge="1">
          <mxGeometry width="50" height="50" relative="1" as="geometry">
            <mxPoint x="373" y="365" as="sourcePoint" />
            <mxPoint x="423" y="315" as="targetPoint" />
          </mxGeometry>
        </mxCell>
        <mxCell id="k0cTdrjHf7oCT_stKDzE-17" value="" style="endArrow=none;html=1;rounded=0;entryX=0;entryY=0.5;entryDx=0;entryDy=0;strokeWidth=2;" parent="1" target="k0cTdrjHf7oCT_stKDzE-5" edge="1">
          <mxGeometry width="50" height="50" relative="1" as="geometry">
            <mxPoint x="108" y="508" as="sourcePoint" />
            <mxPoint x="423" y="315" as="targetPoint" />
          </mxGeometry>
        </mxCell>
        <mxCell id="k0cTdrjHf7oCT_stKDzE-18" value="" style="endArrow=none;html=1;rounded=0;entryX=0.045;entryY=0.343;entryDx=0;entryDy=0;entryPerimeter=0;strokeWidth=2;" parent="1" target="k0cTdrjHf7oCT_stKDzE-6" edge="1">
          <mxGeometry width="50" height="50" relative="1" as="geometry">
            <mxPoint x="108" y="264" as="sourcePoint" />
            <mxPoint x="423" y="315" as="targetPoint" />
          </mxGeometry>
        </mxCell>
        <mxCell id="k0cTdrjHf7oCT_stKDzE-20" value="" style="endArrow=none;html=1;rounded=0;entryX=0;entryY=0.371;entryDx=0;entryDy=0;entryPerimeter=0;exitX=0.5;exitY=0.5;exitDx=0;exitDy=0;exitPerimeter=0;strokeWidth=2;" parent="1" source="k0cTdrjHf7oCT_stKDzE-10" target="k0cTdrjHf7oCT_stKDzE-7" edge="1">
          <mxGeometry width="50" height="50" relative="1" as="geometry">
            <mxPoint x="373" y="365" as="sourcePoint" />
            <mxPoint x="423" y="315" as="targetPoint" />
          </mxGeometry>
        </mxCell>
        <mxCell id="k0cTdrjHf7oCT_stKDzE-21" value="" style="endArrow=none;html=1;rounded=0;entryX=0.018;entryY=0.362;entryDx=0;entryDy=0;entryPerimeter=0;strokeWidth=2;" parent="1" target="k0cTdrjHf7oCT_stKDzE-8" edge="1">
          <mxGeometry width="50" height="50" relative="1" as="geometry">
            <mxPoint x="111" y="263" as="sourcePoint" />
            <mxPoint x="423" y="439" as="targetPoint" />
          </mxGeometry>
        </mxCell>
        <mxCell id="k0cTdrjHf7oCT_stKDzE-22" value="" style="endArrow=none;html=1;rounded=0;exitX=0.5;exitY=0.5;exitDx=0;exitDy=0;exitPerimeter=0;strokeWidth=2;" parent="1" source="k0cTdrjHf7oCT_stKDzE-13" edge="1">
          <mxGeometry width="50" height="50" relative="1" as="geometry">
            <mxPoint x="373" y="365" as="sourcePoint" />
            <mxPoint x="444" y="356" as="targetPoint" />
          </mxGeometry>
        </mxCell>
        <mxCell id="k0cTdrjHf7oCT_stKDzE-23" value="" style="endArrow=none;html=1;rounded=0;entryX=0;entryY=0.5;entryDx=0;entryDy=0;exitX=0.5;exitY=0.5;exitDx=0;exitDy=0;exitPerimeter=0;strokeWidth=2;" parent="1" source="k0cTdrjHf7oCT_stKDzE-13" target="k0cTdrjHf7oCT_stKDzE-7" edge="1">
          <mxGeometry width="50" height="50" relative="1" as="geometry">
            <mxPoint x="373" y="365" as="sourcePoint" />
            <mxPoint x="423" y="315" as="targetPoint" />
          </mxGeometry>
        </mxCell>
        <mxCell id="k0cTdrjHf7oCT_stKDzE-24" value="" style="endArrow=none;html=1;rounded=0;strokeWidth=2;" parent="1" edge="1">
          <mxGeometry width="50" height="50" relative="1" as="geometry">
            <mxPoint x="107" y="507" as="sourcePoint" />
            <mxPoint x="446" y="546" as="targetPoint" />
          </mxGeometry>
        </mxCell>
      </root>
    </mxGraphModel>
  </diagram>
</mxfile>
